#define Private_width 16
#define Private_height 14
static unsigned char Private_bits[] = {
  0x00, 0x00, 0x00, 0x00, 0x60, 0x1c, 0xf0, 0x3e, 0xf0, 0x3f, 0xf0, 0x3f,
  0xf0, 0x1f, 0xf0, 0x1f, 0xe0, 0x0f, 0xc0, 0x07, 0xc0, 0x03, 0x80, 0x01,
  0x00, 0x01, 0x00, 0x00, };
